<svg width="45" height="36" viewBox="0 0 45 36" fill="none" xmlns="http://www.w3.org/2000/svg">
<path d="M17.5905 0.490606C16.9396 -0.16193 15.8831 -0.162921 15.2306 0.487626L6.61113 9.08589L1.66863 9.08556C0.747274 9.08556 0 9.83278 0 10.7542C0 11.6756 0.747223 12.4228 1.66863 12.4228H2.50557L5.71562 30.5186C6.27082 33.6492 8.98194 35.9216 12.1616 35.9216H32.4965C35.6761 35.9216 38.3869 33.6492 38.9425 30.5186L42.1525 12.4228H43.1984C44.1197 12.4228 44.867 11.6756 44.867 10.7542C44.867 9.83278 44.1198 9.08556 43.1984 9.08556H38.7776L30.1582 0.487295C29.506 -0.163588 28.4492 -0.162266 27.7983 0.490275C27.1474 1.14281 27.1487 2.19925 27.8013 2.85016L34.0518 9.08549L11.337 9.08582L17.5876 2.85049C18.2401 2.19927 18.2411 1.14287 17.5902 0.490606H17.5905ZM35.6566 29.9357C35.3844 31.4705 34.0555 32.5846 32.4965 32.5846H12.1616C10.6029 32.5846 9.274 31.4705 9.00152 29.9357L5.89513 12.4222H38.7626L35.6566 29.9357Z" fill="white"/>
<path d="M19.4186 27.4764C19.739 27.7734 20.1459 27.9214 20.5528 27.9214C20.9773 27.9214 21.4011 27.7605 21.7255 27.44L30.2373 19.0325C30.8928 18.385 30.8994 17.3285 30.2519 16.673C29.6043 16.0171 28.5476 16.0108 27.8923 16.6584L20.5165 23.9436L16.6744 20.3816C15.9987 19.7549 14.9429 19.795 14.3162 20.4707C13.6898 21.1464 13.7296 22.2022 14.4053 22.8289L19.4186 27.4764Z" fill="white"/>
</svg>
