<svg width="35" height="35" viewBox="0 0 35 35" fill="none" xmlns="http://www.w3.org/2000/svg">
<path d="M10.3717 0H5.47391C4.02207 0 2.62974 0.576722 1.60307 1.60309C0.576715 2.62977 0 4.02211 0 5.47397V10.3703C0 11.8221 0.576715 13.2145 1.60307 14.2412C2.62974 15.2675 4.02207 15.8442 5.47391 15.8442H10.3717C11.8232 15.8442 13.2156 15.2675 14.2422 14.2412C15.2689 13.2145 15.8456 11.8221 15.8456 10.3703V5.47397C15.8456 4.02211 15.2689 2.62977 14.2422 1.60309C13.2156 0.576722 11.8232 0 10.3717 0ZM13.1087 10.37C13.1087 11.0961 12.8203 11.7923 12.3068 12.3055C11.7936 12.8187 11.0975 13.107 10.3717 13.107H5.47391C4.74782 13.107 4.05163 12.8187 3.53849 12.3055C3.02535 11.7923 2.73695 11.0961 2.73695 10.37V5.47373C2.73695 4.74763 3.02531 4.05144 3.53849 3.53829C4.05167 3.02515 4.74783 2.73675 5.47391 2.73675H10.3717C11.0975 2.73675 11.7937 3.02511 12.3068 3.53829C12.8203 4.05148 13.1087 4.74765 13.1087 5.47373V10.37ZM29.5304 0H24.6283C23.1768 0 21.7844 0.576722 20.7578 1.60309C19.7311 2.62977 19.1544 4.02211 19.1544 5.47397V10.3703C19.1544 11.8221 19.7311 13.2145 20.7578 14.2412C21.7844 15.2675 23.1768 15.8442 24.6283 15.8442H29.5261C30.9779 15.8442 32.3703 15.2675 33.3969 14.2412C34.4233 13.2145 35 11.8221 35 10.3703V5.47397C35 4.02211 34.4233 2.62977 33.3969 1.60309C32.3703 0.576722 30.9779 0 29.5261 0H29.5304ZM32.2674 10.37C32.2674 11.0961 31.979 11.7923 31.4655 12.3055C30.9523 12.8187 30.2562 13.107 29.5304 13.107H24.6283C23.9025 13.107 23.2063 12.8187 22.6932 12.3055C22.1797 11.7923 21.8913 11.0961 21.8913 10.37V5.47373C21.8913 4.74763 22.1797 4.05144 22.6932 3.53829C23.2064 3.02511 23.9025 2.73675 24.6283 2.73675H29.5261C30.2522 2.73675 30.9484 3.02511 31.4615 3.53829C31.9746 4.05148 32.263 4.74765 32.263 5.47373L32.2674 10.37ZM10.3717 19.1558H5.47391C4.02207 19.1558 2.62974 19.7325 1.60307 20.7588C0.576715 21.7855 0 23.1779 0 24.6297V29.526C0 30.9779 0.576715 32.3702 1.60307 33.3969C2.62974 34.4233 4.02207 35 5.47391 35H10.3717C11.8232 35 13.2156 34.4233 14.2422 33.3969C15.2689 32.3702 15.8456 30.9779 15.8456 29.526V24.6297C15.8456 23.1779 15.2689 21.7855 14.2422 20.7588C13.2156 19.7325 11.8232 19.1558 10.3717 19.1558ZM13.1087 29.5258C13.1087 30.2519 12.8203 30.9481 12.3068 31.4612C11.7936 31.9744 11.0975 32.2628 10.3717 32.2628H5.47391C4.74782 32.2628 4.05163 31.9744 3.53849 31.4612C3.02535 30.9481 2.73695 30.2519 2.73695 29.5258V24.6295C2.73695 23.9034 3.02531 23.2072 3.53849 22.6941C4.05167 22.1809 4.74783 21.8925 5.47391 21.8925H10.3717C11.0975 21.8925 11.7937 22.1809 12.3068 22.6941C12.8203 23.2072 13.1087 23.9034 13.1087 24.6295V29.5258ZM29.5304 19.1558H24.6283C23.1768 19.1558 21.7844 19.7325 20.7578 20.7588C19.7311 21.7855 19.1544 23.1779 19.1544 24.6297V29.526C19.1544 30.9779 19.7311 32.3702 20.7578 33.3969C21.7844 34.4233 23.1768 35 24.6283 35H29.5261C30.9779 35 32.3703 34.4233 33.3969 33.3969C34.4233 32.3702 35 30.9779 35 29.526V24.6297C35 23.1779 34.4233 21.7855 33.3969 20.7588C32.3703 19.7325 30.9779 19.1558 29.5261 19.1558H29.5304ZM32.2674 29.5258C32.2674 30.2519 31.979 30.9481 31.4655 31.4612C30.9523 31.9744 30.2562 32.2628 29.5304 32.2628H24.6283C23.9025 32.2628 23.2063 31.9744 22.6932 31.4612C22.1797 30.9481 21.8913 30.2519 21.8913 29.5258V24.6295C21.8913 23.9034 22.1797 23.2072 22.6932 22.6941C23.2064 22.1809 23.9025 21.8925 24.6283 21.8925H29.5261C30.2522 21.8925 30.9484 22.1809 31.4615 22.6941C31.9746 23.2072 32.263 23.9034 32.263 24.6295L32.2674 29.5258Z" fill="white"/>
</svg>
