<svg width="25" height="18" viewBox="0 0 25 18" fill="none" xmlns="http://www.w3.org/2000/svg">
<path d="M1.09668 17.75V9V0.25H16.8547C18.4904 0.25 19.89 0.516667 21.0535 1.05C22.2339 1.56667 23.1445 2.31667 23.7852 3.3C24.426 4.28333 24.7464 5.45 24.7464 6.8C24.7464 8.15 24.426 9.31667 23.7852 10.3C23.1445 11.2667 22.2255 12.0167 21.0282 12.55C19.831 13.0667 18.4061 13.325 16.7536 13.325H6.68662V17.75H1.09668ZM15.8683 4.45H6.68662L0.916626 9.125H15.8683C17.9761 9.125 19.03 8.35833 19.03 6.825C19.03 5.24167 17.9761 4.45 15.8683 4.45Z" fill="white"/>
</svg>
