<svg width="36" height="36" viewBox="0 0 36 36" fill="none" xmlns="http://www.w3.org/2000/svg">
<path d="M24.1364 17.4718C26.2669 15.7672 27.5913 13.2529 27.7915 10.533C27.9921 7.81279 27.0504 5.13196 25.1931 3.13377C23.3354 1.13558 20.7293 0 18 0C15.2707 0 12.6646 1.13558 10.8069 3.13377C8.9496 5.13196 8.0079 7.8127 8.20847 10.533C8.40863 13.2528 9.73309 15.7672 11.8636 17.4718C8.39034 18.7305 5.38906 21.0265 3.26656 24.049C1.14405 27.0711 0.00364675 30.6724 0 34.3647V36H36V34.3647C35.9963 30.6724 34.856 27.071 32.7334 24.049C30.6109 21.0265 27.6096 18.7305 24.1364 17.4718ZM11.455 9.83463C11.455 8.09968 12.1446 6.43584 13.3723 5.20934C14.5995 3.98246 16.2644 3.29329 18.0005 3.29329C19.7365 3.29329 21.4014 3.98246 22.6287 5.20934C23.8563 6.43584 24.5459 8.09968 24.5459 9.83463C24.5459 11.5696 23.8563 13.2334 22.6287 14.4599C21.4014 15.6868 19.7365 16.376 18.0005 16.376C16.2644 16.376 14.5995 15.6868 13.3723 14.4599C12.1446 13.2334 11.455 11.5696 11.455 9.83463ZM3.37147 32.7293C3.93142 27.9066 6.8356 23.67 11.1333 21.4063C15.4313 19.142 20.5699 19.142 24.8675 21.4063C29.1651 23.6702 32.0694 27.9067 32.6293 32.7293H3.37147Z" fill="white"/>
</svg>
